<svg id="Layer_1" data-name="Layer 1" xmlns="http://www.w3.org/2000/svg" viewBox="0 0 33 33">
  <title>icon-instagram</title>
  <circle cx="16.5" cy="16.5" r="16" style="fill: none;stroke: #bfbfbf;stroke-miterlimit: 10;stroke-width: 0.75px"/>
  <path id="instagram" d="M16.5,10c2.12,0,2.37,0,3.21,0,2.15.1,3.15,1.12,3.25,3.25,0,.84.05,1.09.05,3.21s0,2.37-.05,3.21c-.1,2.13-1.1,3.15-3.25,3.25-.84,0-1.09.05-3.21.05s-2.37,0-3.21-.05c-2.15-.1-3.15-1.12-3.25-3.25,0-.84,0-1.09,0-3.21s0-2.37,0-3.21c.1-2.13,1.1-3.15,3.25-3.25C14.13,10,14.38,10,16.5,10Zm0-1.43c-2.15,0-2.42,0-3.27,0-2.88.13-4.48,1.73-4.62,4.62,0,.85,0,1.12,0,3.27s0,2.43,0,3.27c.13,2.88,1.73,4.49,4.62,4.62.85,0,1.12,0,3.27,0s2.43,0,3.27,0c2.88-.13,4.49-1.73,4.62-4.62,0-.84,0-1.12,0-3.27s0-2.42,0-3.27c-.13-2.88-1.73-4.48-4.62-4.62C18.93,8.57,18.65,8.57,16.5,8.57Zm0,3.86a4.08,4.08,0,1,0,4.07,4.07A4.07,4.07,0,0,0,16.5,12.43Zm0,6.71a2.64,2.64,0,1,1,2.64-2.64A2.64,2.64,0,0,1,16.5,19.14Zm4.24-7.83a1,1,0,1,0,1,.95A1,1,0,0,0,20.74,11.31Z" style="fill: #4b7ef3"/>
</svg>
