<svg id="Layer_1" data-name="Layer 1" xmlns="http://www.w3.org/2000/svg" viewBox="0 0 33 33">
  <title>icon-twitter</title>
  <circle cx="16.5" cy="16.5" r="16" style="fill: none;stroke: #bfbfbf;stroke-miterlimit: 10;stroke-width: 0.75px"/>
  <path id="twitter" d="M24.57,11.5a6.84,6.84,0,0,1-1.91.52,3.32,3.32,0,0,0,1.46-1.83A6.67,6.67,0,0,1,22,11a3.31,3.31,0,0,0-5.64,3,9.41,9.41,0,0,1-6.82-3.46,3.32,3.32,0,0,0,1,4.42,3.46,3.46,0,0,1-1.5-.41,3.32,3.32,0,0,0,2.66,3.28,3.28,3.28,0,0,1-1.5.06,3.33,3.33,0,0,0,3.09,2.3,6.64,6.64,0,0,1-4.9,1.37,9.41,9.41,0,0,0,14.48-8.36A6.92,6.92,0,0,0,24.57,11.5Z" style="fill: #4b7ef3"/>
</svg>
